<?xml version="1.0" encoding="UTF-8"?>
<svg version="1.1" xmlns="http://www.w3.org/2000/svg" width="512" height="512">
<path d="M0 0 C1.16789062 -0.01385742 2.33578125 -0.02771484 3.5390625 -0.04199219 C14.54523643 0.0172143 25.41004044 1.15085219 33.52734375 9.19921875 C38.49733331 14.53509711 38.49733331 14.53509711 39.4375 18.6875 C40.38311613 21.54801356 40.38311613 21.54801356 42.81811523 22.15527344 C43.72247314 22.36700195 44.62683105 22.57873047 45.55859375 22.796875 C51.51576752 24.29702511 57.2301496 26.21328208 63 28.3125 C64.4240918 28.81426758 64.4240918 28.81426758 65.87695312 29.32617188 C73.83022019 32.20666427 79.31468115 34.76305607 83.6875 42.375 C85.28434032 47.16552095 85.65814058 51.84828764 83.81640625 56.64257812 C80.39474692 63.32322774 76.47210501 69.56891618 72.3125 75.8125 C71.03323936 77.74829176 69.75459148 79.68448861 68.4765625 81.62109375 C67.85048096 82.56670166 67.22439941 83.51230957 66.5793457 84.48657227 C64.08260047 88.29854709 61.6547385 92.15233442 59.23754883 96.01513672 C57.26086606 99.02452648 55.08192938 101.69033676 52.6875 104.375 C53.40550781 104.64183594 54.12351562 104.90867187 54.86328125 105.18359375 C65.16463458 109.52925456 75.54492927 117.15229747 81.5 126.6875 C84.75054097 131.35211811 89.00614077 131.95006405 94.3046875 133.33203125 C106.18332822 136.99438353 115.37994655 146.17803886 121.37109375 156.7890625 C129.30411018 172.37261405 129.72724782 188.94271271 124.37646484 205.44335938 C120.29790127 216.87836822 113.71776693 227.20738052 104.6875 235.375 C102.125 235.5625 102.125 235.5625 99.6875 234.375 C97.875 230.8125 97.875 230.8125 96.6875 227.375 C93.44393424 226.62086647 93.44393424 226.62086647 89.6875 227.375 C87.8725491 229.38603856 86.61158615 231.5044639 85.2421875 233.83984375 C82.84640852 237.74652857 79.7830148 241.0138937 76.6875 244.375 C78.16454793 248.58069964 80.29720032 251.8947198 82.8125 255.5625 C100.20714009 282.03951614 105.8998956 315.14842292 99.65625 346.14453125 C94.3858279 369.95398974 83.51526412 389.77532009 66.6875 407.375 C66.07777344 408.04789062 65.46804688 408.72078125 64.83984375 409.4140625 C57.55083381 417.1828162 48.55746172 423.09622891 39.45263672 428.53076172 C38.5584201 429.06514862 37.66420349 429.59953552 36.7428894 430.15011597 C36.0646109 430.5543277 35.3863324 430.95853943 34.6875 431.375 C34.93179749 432.34219719 34.93179749 432.34219719 35.18103027 433.32893372 C36.87216818 440.02722476 38.55837636 446.72674277 40.24169922 453.42700195 C40.87096264 455.92894943 41.50149152 458.43057897 42.13330078 460.93188477 C43.04009856 464.5227755 43.94237137 468.11477693 44.84375 471.70703125 C45.12810913 472.82898392 45.41246826 473.95093658 45.70544434 475.10688782 C46.095849 476.66816658 46.095849 476.66816658 46.49414062 478.26098633 C46.72508423 479.17809891 46.95602783 480.09521149 47.19396973 481.04011536 C47.6875 483.375 47.6875 483.375 47.6875 486.375 C48.50089844 486.40078125 49.31429688 486.4265625 50.15234375 486.453125 C63.8492883 487.13103902 78.5749249 489.58429445 90.6875 496.375 C93.1631762 500.0885143 93.33216177 503.07167338 92.6875 507.375 C91.25 510.375 91.25 510.375 88.6875 512.375 C81.72572094 513.55496255 75.7261617 511.34380372 69.12915039 509.30639648 C52.32474427 504.13481793 36.44533037 503.2639367 20.48828125 511.51171875 C13.77207994 514.73141613 6.31872905 511.46663171 -0.22875977 509.30566406 C-15.19646728 504.40669688 -29.47720666 503.54615281 -44.3125 509.375 C-45.33214844 509.90609375 -46.35179687 510.4371875 -47.40234375 510.984375 C-51.47934528 512.93257976 -54.88529525 513.11567304 -59.3125 512.375 C-62.71316339 510.24958538 -63.19501741 508.8057695 -64.25 504.9375 C-64.32267444 500.79505698 -63.80437785 499.62000118 -61.3125 496.375 C-59.04389331 494.9528458 -56.96821483 493.80153883 -54.5625 492.6875 C-53.66917969 492.24567383 -53.66917969 492.24567383 -52.7578125 491.79492188 C-47.35298017 489.19194526 -42.33689088 487.375 -36.3125 487.375 C-36.21598145 486.77453857 -36.11946289 486.17407715 -36.02001953 485.55541992 C-34.52946505 476.81358494 -32.37243931 468.27475271 -30.1875 459.6875 C-29.81086564 458.19604741 -29.43456125 456.70451146 -29.05859375 455.21289062 C-28.14702467 451.59929302 -27.23101822 447.98683834 -26.3125 444.375 C-27.27119995 444.21680786 -27.27119995 444.21680786 -28.24926758 444.05541992 C-31.20884941 443.56362393 -34.1668955 443.0631023 -37.125 442.5625 C-38.12982422 442.39685547 -39.13464844 442.23121094 -40.16992188 442.06054688 C-46.18561335 441.03536473 -51.93533132 439.7243633 -57.7487793 437.85668945 C-63.11723087 436.8480279 -68.18641419 438.88112551 -73.24194336 440.59228516 C-74.24855735 440.93055643 -74.24855735 440.93055643 -75.27550697 441.27566147 C-76.7359996 441.76696041 -78.19580742 442.26029877 -79.65500069 442.75544357 C-82.85111637 443.83973228 -86.05070126 444.91361193 -89.25010204 445.98816109 C-90.96049113 446.56267163 -92.67071391 447.1376775 -94.38078022 447.71314812 C-104.09633681 450.98093765 -113.83082001 454.19091943 -123.56640625 457.3984375 C-125.40531167 458.00463561 -127.24420932 458.6108573 -129.08309937 459.21710205 C-132.8099068 460.44558972 -136.53685911 461.67363658 -140.26391602 462.90136719 C-143.99231456 464.129577 -147.72050418 465.35841753 -151.44848633 466.58789062 C-173.81668674 473.96482369 -196.19487231 481.30962748 -218.59767151 488.5809021 C-230.65922688 492.49767527 -242.70453055 496.46205584 -254.72695637 500.49749947 C-270.4047401 505.7586139 -270.4047401 505.7586139 -277.66796875 503.7109375 C-283.2371032 500.78981367 -287.25148026 497.55805922 -289.3125 491.375 C-290.01339648 484.15921334 -289.6159616 479.27689019 -285.3125 473.375 C-284.32789102 472.3598423 -283.33129465 471.35584528 -282.3125 470.375 C-282.90417969 470.15585937 -283.49585938 469.93671875 -284.10546875 469.7109375 C-290.55500993 467.12270401 -293.87203282 464.54880252 -297.41796875 458.484375 C-299.33774793 453.9573848 -299.01078516 448.78763794 -297.66015625 444.12109375 C-294.85320767 437.77233022 -289.96107671 434.45338432 -283.64160156 431.88037109 C-282.33263326 431.45759246 -281.01954059 431.04742344 -279.703125 430.6484375 C-278.22492844 430.17506899 -276.74673861 429.70167946 -275.26855469 429.22827148 C-274.11728088 428.86727859 -274.11728088 428.86727859 -272.94274902 428.49899292 C-256.36342067 423.28197595 -240.25176016 417.32712385 -224.3125 410.375 C-223.28769531 409.92801758 -222.26289063 409.48103516 -221.20703125 409.02050781 C-194.39996433 397.22234053 -168.0550871 384.03594271 -145.3125 365.375 C-144.73661133 364.91125977 -144.16072266 364.44751953 -143.56738281 363.96972656 C-129.05308404 352.24392772 -119.53587824 338.97331677 -109.95605469 323.09423828 C-95.71502565 299.53265459 -95.71502565 299.53265459 -87.3125 290.375 C-86.84263672 289.86275879 -86.37277344 289.35051758 -85.88867188 288.82275391 C-72.69379301 274.61256029 -55.19564591 260.87262476 -36.3125 255.375 C-39.13455432 252.46475649 -42.00875031 249.78130151 -45.125 247.1875 C-60.46906565 233.7722381 -71.02366541 212.73016772 -72.53369141 192.39648438 C-73.20340834 174.1687844 -71.79955017 158.79257246 -63.3125 142.375 C-64.83145874 142.44859741 -64.83145874 142.44859741 -66.38110352 142.52368164 C-70.54777147 142.36610226 -73.35166815 141.52167389 -77.21484375 139.99609375 C-77.85040192 139.74865417 -78.48596008 139.5012146 -79.14077759 139.24627686 C-81.18232767 138.44739995 -83.21630988 137.63115799 -85.25 136.8125 C-86.65142783 136.25580412 -88.05303984 135.69957168 -89.45483398 135.14379883 C-92.19053939 134.05561105 -94.92243676 132.95857948 -97.65136719 131.85351562 C-100.65924159 130.63881255 -103.67438746 129.44725905 -106.6953125 128.265625 C-119.86472914 122.98939302 -119.86472914 122.98939302 -123.3125 116.375 C-125.44494449 111.27567623 -125.84090566 106.69282568 -124.3125 101.375 C-121.01276828 94.32010258 -116.43183957 87.91803406 -112.0625 81.5 C-110.80409753 79.65060689 -109.54873953 77.79913742 -108.296875 75.9453125 C-107.74741211 75.13852051 -107.19794922 74.33172852 -106.63183594 73.50048828 C-104.37112934 69.8584247 -104.27495916 67.08143514 -104.42993164 62.87939453 C-104.76890396 52.57794322 -103.11854271 46.45785319 -96.375 38.4375 C-82.33458082 23.69050129 -64.44408555 14.05430995 -45.18457031 7.97900391 C-43.50276179 7.43638598 -41.83956042 6.83688117 -40.1796875 6.23046875 C-26.90764281 1.40262688 -14.04874202 0.09971505 0 0 Z M8.140625 439.25 C7.29628906 439.43046875 6.45195312 439.6109375 5.58203125 439.796875 C4.27298828 440.08304687 4.27298828 440.08304687 2.9375 440.375 C1.60525391 440.66117187 1.60525391 440.66117187 0.24609375 440.953125 C-1.94091593 441.42344966 -4.12704198 441.89752631 -6.3125 442.375 C-9.24949483 452.66747746 -12.02016989 462.99313666 -14.625 473.375 C-14.89135254 474.43138672 -15.15770508 475.48777344 -15.43212891 476.57617188 C-15.67753418 477.56166016 -15.92293945 478.54714844 -16.17578125 479.5625 C-16.39532471 480.44292969 -16.61486816 481.32335937 -16.84106445 482.23046875 C-17.38406827 484.33460331 -17.38406827 484.33460331 -17.3125 486.375 C-16.66289307 486.51599121 -16.01328613 486.65698242 -15.34399414 486.80224609 C-12.35428023 487.45127102 -9.36463973 488.10063347 -6.375 488.75 C-4.84262695 489.08257812 -4.84262695 489.08257812 -3.27929688 489.421875 C-1.76625977 489.75058594 -1.76625977 489.75058594 -0.22265625 490.0859375 C0.78079834 490.29911621 1.78425293 490.51229492 2.81811523 490.73193359 C4.61675435 491.13503199 6.40790533 491.57523393 8.18383789 492.06884766 C13.8092144 493.59194885 16.83311358 493.20882747 22.25 491 C24.07724609 490.27683594 24.07724609 490.27683594 25.94140625 489.5390625 C26.84761719 489.15492188 27.75382812 488.77078125 28.6875 488.375 C28.10824694 482.06263698 27.04778331 476.15944991 25.4375 470.03515625 C25.21932617 469.18698837 25.00115234 468.3388205 24.77636719 467.46495056 C24.31864926 465.6903216 23.85800288 463.91644554 23.39453125 462.14331055 C22.6834716 459.42208331 21.98162869 456.69860315 21.28125 453.97460938 C20.83386291 452.24465463 20.38596473 450.51483195 19.9375 448.78515625 C19.72706055 447.97063492 19.51662109 447.15611359 19.29980469 446.31690979 C18.27098978 442.24696134 18.27098978 442.24696134 16.6875 438.375 C13.51016763 438.375 11.18354956 438.59207036 8.140625 439.25 Z " fill="#E44C3C" transform="translate(341.3125,-0.375)"/>
<path d="M0 0 C2.42678625 1.08469991 4.75578824 2.32241676 7.08520508 3.60131836 C13.80039499 7.23708917 20.47766204 9.9501016 27.875 11.859375 C28.60654297 12.05821289 29.33808594 12.25705078 30.09179688 12.46191406 C38.90644314 14.56651366 48.04474326 14.57465919 57.0625 14.921875 C57.13943452 22.44337302 57.19146543 29.96476724 57.22729492 37.48657227 C57.24225343 40.03804313 57.26262755 42.58948886 57.28881836 45.14086914 C57.46856036 63.11859335 57.19390422 79.95009 50.875 96.984375 C50.57529297 97.81380615 50.27558594 98.6432373 49.96679688 99.49780273 C43.90064365 115.82169599 35.37057888 130.6558602 24.0625 143.921875 C23.25039063 144.8809375 22.43828125 145.84 21.6015625 146.828125 C4.1684662 166.89796898 -19.92635249 180.552703 -45.05859375 188.4921875 C-46.61500856 188.99595312 -48.17093817 189.50121983 -49.72642517 190.00784302 C-53.05347554 191.08985095 -56.38269905 192.16477419 -59.71356201 193.23498535 C-65.04729863 194.95244368 -70.36877232 196.70592577 -75.68798828 198.46777344 C-77.05125024 198.91929213 -77.05125024 198.91929213 -78.44205284 199.3799324 C-80.30223982 199.996163 -82.16240236 200.61246736 -84.02254105 201.22884369 C-88.79678302 202.80929637 -93.57321197 204.38310701 -98.34960938 205.95703125 C-100.28996028 206.59650903 -102.23030859 207.23599472 -104.1706543 207.87548828 C-105.13310059 208.19267822 -106.09554687 208.50986816 -107.0871582 208.83666992 C-109.98882924 209.79319261 -112.89032181 210.75025458 -115.79174805 211.70751953 C-138.6122921 219.23665849 -161.44224222 226.73535565 -184.29920959 234.15328979 C-196.33546425 238.0613853 -208.35529474 242.01758304 -220.35236835 246.0445118 C-236.02974039 251.30548882 -236.02974039 251.30548882 -243.29296875 249.2578125 C-248.8621032 246.33668867 -252.87648026 243.10493422 -254.9375 236.921875 C-255.63839648 229.70608834 -255.2409616 224.82376519 -250.9375 218.921875 C-249.95289102 217.9067173 -248.95629465 216.90272028 -247.9375 215.921875 C-248.82501953 215.59316406 -248.82501953 215.59316406 -249.73046875 215.2578125 C-256.18000993 212.66957901 -259.49703282 210.09567752 -263.04296875 204.03125 C-264.96274793 199.5042598 -264.63578516 194.33451294 -263.28515625 189.66796875 C-260.47820767 183.31920522 -255.58607671 180.00025932 -249.26660156 177.42724609 C-247.95763326 177.00446746 -246.64454059 176.59429844 -245.328125 176.1953125 C-243.84992844 175.72194399 -242.37173861 175.24855446 -240.89355469 174.77514648 C-239.74228088 174.41415359 -239.74228088 174.41415359 -238.56774902 174.04586792 C-221.98842067 168.82885095 -205.87676016 162.87399885 -189.9375 155.921875 C-188.91269531 155.47489258 -187.88789063 155.02791016 -186.83203125 154.56738281 C-160.02496433 142.76921553 -133.6800871 129.58281771 -110.9375 110.921875 C-110.36161133 110.45813477 -109.78572266 109.99439453 -109.19238281 109.51660156 C-94.67808404 97.79080272 -85.16087824 84.52019177 -75.58105469 68.64111328 C-61.34002565 45.07952959 -61.34002565 45.07952959 -52.9375 35.921875 C-52.46763672 35.40963379 -51.99777344 34.89739258 -51.51367188 34.36962891 C-39.35627597 21.27675011 -25.62855116 12.2477092 -9.87890625 3.94970703 C-8.12255737 3.01984929 -6.38789924 2.04930219 -4.65625 1.07421875 C-1.9375 -0.078125 -1.9375 -0.078125 0 0 Z " fill="#BF3A2B" transform="translate(306.9375,254.078125)"/>
<path d="M0 0 C1.16789062 -0.01385742 2.33578125 -0.02771484 3.5390625 -0.04199219 C14.54523643 0.0172143 25.41004044 1.15085219 33.52734375 9.19921875 C38.49733331 14.53509711 38.49733331 14.53509711 39.4375 18.6875 C40.38311613 21.54801356 40.38311613 21.54801356 42.81811523 22.15527344 C43.72247314 22.36700195 44.62683105 22.57873047 45.55859375 22.796875 C51.51576752 24.29702511 57.2301496 26.21328208 63 28.3125 C64.4240918 28.81426758 64.4240918 28.81426758 65.87695312 29.32617188 C73.83022019 32.20666427 79.31468115 34.76305607 83.6875 42.375 C85.28434032 47.16552095 85.65814058 51.84828764 83.81640625 56.64257812 C80.39474692 63.32322774 76.47210501 69.56891618 72.3125 75.8125 C71.03323936 77.74829176 69.75459148 79.68448861 68.4765625 81.62109375 C67.85112549 82.565896 67.22568848 83.51069824 66.58129883 84.48413086 C64.06949508 88.31837969 61.62417274 92.19308346 59.1887207 96.07617188 C55.81004135 101.24996351 53.17006388 103.51771424 47.14331055 104.92602539 C43.35169884 105.61921298 39.54259586 105.92562032 35.70507812 106.26049805 C13.51967782 108.23540739 -7.18815815 113.87018206 -27.3125 123.375 C-28.01552246 123.70113281 -28.71854492 124.02726562 -29.44287109 124.36328125 C-37.57746311 128.16106334 -45.26815801 132.37558575 -52.71020508 137.40600586 C-58.45176017 141.26989614 -63.29059434 143.52146114 -70.3125 142.375 C-75.42205219 140.79040164 -80.3586042 138.8192129 -85.3125 136.8125 C-86.70930206 136.25563383 -88.10635727 135.69940221 -89.50366211 135.14379883 C-92.22882407 134.056426 -94.9497868 132.95941685 -97.66748047 131.85351562 C-100.66790665 130.63646399 -103.67602883 129.44485615 -106.69140625 128.265625 C-119.86306504 122.99258552 -119.86306504 122.99258552 -123.3125 116.375 C-125.44494449 111.27567623 -125.84090566 106.69282568 -124.3125 101.375 C-121.01276828 94.32010258 -116.43183957 87.91803406 -112.0625 81.5 C-110.80409753 79.65060689 -109.54873953 77.79913742 -108.296875 75.9453125 C-107.74741211 75.13852051 -107.19794922 74.33172852 -106.63183594 73.50048828 C-104.37112934 69.8584247 -104.27495916 67.08143514 -104.42993164 62.87939453 C-104.76890396 52.57794322 -103.11854271 46.45785319 -96.375 38.4375 C-82.33458082 23.69050129 -64.44408555 14.05430995 -45.18457031 7.97900391 C-43.50276179 7.43638598 -41.83956042 6.83688117 -40.1796875 6.23046875 C-26.90764281 1.40262688 -14.04874202 0.09971505 0 0 Z " fill="#464F5D" transform="translate(341.3125,-0.375)"/>
<path d="M0 0 C3.20969811 1.35472336 4.72904778 2.61291923 6.55078125 5.5703125 C6.99856934 6.29323486 7.44635742 7.01615723 7.90771484 7.76098633 C8.37129395 8.54111084 8.83487305 9.32123535 9.3125 10.125 C9.7967041 10.93541748 10.2809082 11.74583496 10.77978516 12.58081055 C28.03920089 42.0218219 32.59227386 76.00939253 23.96875 109.07421875 C18.22081736 129.61256342 7.67228614 146.65467321 -7 162 C-7.60972656 162.67289063 -8.21945312 163.34578125 -8.84765625 164.0390625 C-16.13666619 171.8078162 -25.13003828 177.72122891 -34.23486328 183.15576172 C-35.1290799 183.69014862 -36.02329651 184.22453552 -36.9446106 184.77511597 C-37.96202835 185.38143356 -37.96202835 185.38143356 -39 186 C-38.83713501 186.64479813 -38.67427002 187.28959625 -38.50646973 187.95393372 C-36.81533182 194.65222476 -35.12912364 201.35174277 -33.44580078 208.05200195 C-32.81653736 210.55394943 -32.18600848 213.05557897 -31.55419922 215.55688477 C-30.64740144 219.1477755 -29.74512863 222.73977693 -28.84375 226.33203125 C-28.55939087 227.45398392 -28.27503174 228.57593658 -27.98205566 229.73188782 C-27.72178589 230.77274033 -27.46151611 231.81359283 -27.19335938 232.88598633 C-26.96241577 233.80309891 -26.73147217 234.72021149 -26.49353027 235.66511536 C-26 238 -26 238 -26 241 C-25.18660156 241.02578125 -24.37320313 241.0515625 -23.53515625 241.078125 C-9.8382117 241.75603902 4.8874249 244.20929445 17 251 C19.4756762 254.7135143 19.64466177 257.69667338 19 262 C17.5625 265 17.5625 265 15 267 C8.03822094 268.17996255 2.0386617 265.96880372 -4.55834961 263.93139648 C-21.36275573 258.75981793 -37.24216963 257.8889367 -53.19921875 266.13671875 C-59.91542006 269.35641613 -67.36877095 266.09163171 -73.91625977 263.93066406 C-88.88396728 259.03169688 -103.16470666 258.17115281 -118 264 C-119.01964844 264.53109375 -120.03929687 265.0621875 -121.08984375 265.609375 C-125.16684528 267.55757976 -128.57279525 267.74067304 -133 267 C-136.40066339 264.87458538 -136.88251741 263.4307695 -137.9375 259.5625 C-138.01017444 255.42005698 -137.49187785 254.24500118 -135 251 C-132.73139331 249.5778458 -130.65571483 248.42653883 -128.25 247.3125 C-127.35667969 246.87067383 -127.35667969 246.87067383 -126.4453125 246.41992188 C-121.04048017 243.81694526 -116.02439088 242 -110 242 C-109.90348145 241.39953857 -109.80696289 240.79907715 -109.70751953 240.18041992 C-108.21696505 231.43858494 -106.05993931 222.89975271 -103.875 214.3125 C-103.49836564 212.82104741 -103.12206125 211.32951146 -102.74609375 209.83789062 C-101.83452467 206.22429302 -100.91851822 202.61183834 -100 199 C-100.6391333 198.89453857 -101.2782666 198.78907715 -101.93676758 198.68041992 C-104.89634941 198.18862393 -107.8543955 197.6881023 -110.8125 197.1875 C-111.81732422 197.02185547 -112.82214844 196.85621094 -113.85742188 196.68554688 C-120.70395856 195.51877374 -127.3351666 193.95230832 -134 192 C-134 191.01 -134 190.02 -134 189 C-133.49774902 188.74943848 -132.99549805 188.49887695 -132.47802734 188.24072266 C-96.25404594 170.03377508 -70.64880311 142.92043425 -57.37646484 104.06787109 C-49.06020158 77.90679802 -50.19702331 50.14505583 -50 23 C-48.94143799 22.82114258 -47.88287598 22.64228516 -46.79223633 22.45800781 C-35.95350452 20.58761726 -35.95350452 20.58761726 -25.6875 16.75 C-25.03144775 16.44843994 -24.37539551 16.14687988 -23.69946289 15.83618164 C-14.92492639 11.69733031 -7.16772474 6.53059365 0 0 Z M-65.546875 193.875 C-66.39121094 194.05546875 -67.23554688 194.2359375 -68.10546875 194.421875 C-69.41451172 194.70804688 -69.41451172 194.70804688 -70.75 195 C-72.08224609 195.28617188 -72.08224609 195.28617188 -73.44140625 195.578125 C-75.62841593 196.04844966 -77.81454198 196.52252631 -80 197 C-82.93699483 207.29247746 -85.70766989 217.61813666 -88.3125 228 C-88.57885254 229.05638672 -88.84520508 230.11277344 -89.11962891 231.20117188 C-89.36503418 232.18666016 -89.61043945 233.17214844 -89.86328125 234.1875 C-90.08282471 235.06792969 -90.30236816 235.94835937 -90.52856445 236.85546875 C-91.07156827 238.95960331 -91.07156827 238.95960331 -91 241 C-90.35039307 241.14099121 -89.70078613 241.28198242 -89.03149414 241.42724609 C-86.04178023 242.07627102 -83.05213973 242.72563347 -80.0625 243.375 C-78.53012695 243.70757812 -78.53012695 243.70757812 -76.96679688 244.046875 C-75.45375977 244.37558594 -75.45375977 244.37558594 -73.91015625 244.7109375 C-72.90670166 244.92411621 -71.90324707 245.13729492 -70.86938477 245.35693359 C-69.07074565 245.76003199 -67.27959467 246.20023393 -65.50366211 246.69384766 C-59.8782856 248.21694885 -56.85438642 247.83382747 -51.4375 245.625 C-49.61025391 244.90183594 -49.61025391 244.90183594 -47.74609375 244.1640625 C-46.83988281 243.77992188 -45.93367188 243.39578125 -45 243 C-45.57925306 236.68763698 -46.63971669 230.78444991 -48.25 224.66015625 C-48.46817383 223.81198837 -48.68634766 222.9638205 -48.91113281 222.08995056 C-49.36885074 220.3153216 -49.82949712 218.54144554 -50.29296875 216.76831055 C-51.0040284 214.04708331 -51.70587131 211.32360315 -52.40625 208.59960938 C-52.85363709 206.86965463 -53.30153527 205.13983195 -53.75 203.41015625 C-53.96043945 202.59563492 -54.17087891 201.78111359 -54.38769531 200.94190979 C-55.41651022 196.87196134 -55.41651022 196.87196134 -57 193 C-60.17733237 193 -62.50395044 193.21707036 -65.546875 193.875 Z " fill="#F7E8AE" transform="translate(415,245)"/>
<path d="M0 0 C11.77440426 10.20565878 19.36481877 22.71293153 20.48828125 38.44140625 C21.35830022 59.65668696 13.45945333 77.5816053 -0.84375 93.1484375 C-2.765625 94.88671875 -2.765625 94.88671875 -5.328125 95.07421875 C-8.94604041 93.31164458 -9.33892481 90.51343198 -10.765625 86.88671875 C-11.77874756 86.87737305 -12.79187012 86.86802734 -13.83569336 86.85839844 C-17.63251012 86.81820753 -21.42854111 86.75237206 -25.22485352 86.67919922 C-26.86081772 86.65115688 -28.49691319 86.62985994 -30.13305664 86.61572266 C-41.67796932 86.51003227 -51.33812853 86.00421544 -60.19140625 77.6875 C-67.31401027 69.53980657 -67.38563355 61.22019462 -66.765625 50.88671875 C-67.57386719 50.94472656 -68.38210938 51.00273437 -69.21484375 51.0625 C-77.69777183 51.42064534 -77.69777183 51.42064534 -82.015625 49.26171875 C-85.84351579 41.87935794 -84.37650365 33.12892074 -82.328125 25.32421875 C-77.4076348 11.16701887 -67.77417606 1.40063799 -54.640625 -5.48828125 C-37.01309898 -13.72042538 -15.6079519 -11.92641522 0 0 Z " fill="#EFC219" transform="translate(448.765625,140.11328125)"/>
<path d="M0 0 C0.73403931 2.07418823 0.73403931 2.07418823 1.42041016 4.83935547 C1.68052887 5.87067596 1.94064758 6.90199646 2.20864868 7.96456909 C2.61970352 9.6488652 2.61970352 9.6488652 3.0390625 11.3671875 C3.32478119 12.51285187 3.61049988 13.65851624 3.90487671 14.83889771 C4.50881782 17.26745216 5.10876921 19.69700168 5.70507812 22.12744141 C6.61989035 25.85418443 7.54713711 29.57765885 8.4765625 33.30078125 C9.06063246 35.65606745 9.64398957 38.01153057 10.2265625 40.3671875 C10.64369003 42.04541092 10.64369003 42.04541092 11.06924438 43.75753784 C11.32305878 44.79516266 11.57687317 45.83278748 11.83837891 46.90185547 C12.0632901 47.81595184 12.28820129 48.73004822 12.51992798 49.67184448 C13 52 13 52 13 55 C14.22009766 55.03867187 14.22009766 55.03867187 15.46484375 55.078125 C29.1617883 55.75603902 43.8874249 58.20929445 56 65 C58.4756762 68.7135143 58.64466177 71.69667338 58 76 C56.5625 79 56.5625 79 54 81 C47.03822094 82.17996255 41.0386617 79.96880372 34.44165039 77.93139648 C17.63724427 72.75981793 1.75783037 71.8889367 -14.19921875 80.13671875 C-20.91542006 83.35641613 -28.36877095 80.09163171 -34.91625977 77.93066406 C-49.88396728 73.03169688 -64.16470666 72.17115281 -79 78 C-80.52947266 78.79664063 -80.52947266 78.79664063 -82.08984375 79.609375 C-86.16684528 81.55757976 -89.57279525 81.74067304 -94 81 C-97.40066339 78.87458538 -97.88251741 77.4307695 -98.9375 73.5625 C-99.01017444 69.42005698 -98.49187785 68.24500118 -96 65 C-93.73139331 63.5778458 -91.65571483 62.42653883 -89.25 61.3125 C-88.65445312 61.01794922 -88.05890625 60.72339844 -87.4453125 60.41992188 C-82.04048017 57.81694526 -77.02439088 56 -71 56 C-70.90275635 55.39808838 -70.8055127 54.79617676 -70.70532227 54.17602539 C-69.34582233 46.22269341 -67.4631347 38.42483528 -65.48608398 30.6081543 C-64.93083066 28.41111054 -64.3820524 26.21251789 -63.83398438 24.01367188 C-61.13982101 13.27964203 -61.13982101 13.27964203 -60 11 C-53.73 11 -47.46 11 -41 11 C-43.24772741 21.37412653 -45.62172094 31.699721 -48.1875 42 C-48.44934082 43.05638672 -48.71118164 44.11277344 -48.98095703 45.20117188 C-49.35196533 46.6794043 -49.35196533 46.6794043 -49.73046875 48.1875 C-50.06147583 49.50814453 -50.06147583 49.50814453 -50.39916992 50.85546875 C-51 53 -51 53 -52 55 C-51.07960938 55.09796875 -50.15921875 55.1959375 -49.2109375 55.296875 C-41.14116391 56.25012728 -33.85342579 57.71552474 -26.12109375 60.29296875 C-21.253555 61.39562772 -17.33977314 60.30804998 -12.8125 58.4375 C-10.20217901 57.36145052 -8.9044889 57 -6 57 C-6.22883629 56.11130219 -6.22883629 56.11130219 -6.46229553 55.20465088 C-8.0468544 49.04326892 -9.61820159 42.87862631 -11.18188477 36.71191406 C-11.76736006 34.41026735 -12.35620994 32.10947631 -12.94848633 29.80957031 C-13.7987502 26.50544348 -14.63686967 23.19843935 -15.47265625 19.890625 C-15.74030289 18.86132874 -16.00794952 17.83203247 -16.28370667 16.77154541 C-16.6441935 15.33050446 -16.6441935 15.33050446 -17.01196289 13.86035156 C-17.22736221 13.01651917 -17.44276154 12.17268677 -17.66468811 11.30328369 C-18.02965122 8.79632346 -17.99241109 7.33062031 -17 5 C-14.49200194 3.68233868 -12.1985004 2.65865804 -9.5625 1.6875 C-8.86833984 1.41099609 -8.17417969 1.13449219 -7.45898438 0.84960938 C-2.28086515 -1.14043257 -2.28086515 -1.14043257 0 0 Z " fill="#F19B1E" transform="translate(376,431)"/>
<path d="M0 0 C3.34265205 1.20706879 3.94704566 1.92056849 6 5 C6.42707904 8.84371139 6.51215772 11.1464038 4.5 14.5 C2.49459738 16.50540262 0.48942411 18.25925947 -1.6875 20.0625 C-12.09808101 29.0977382 -18.55878827 41.70785066 -25.5859375 53.36328125 C-37.67647268 73.3817626 -51.59387794 90.41852668 -70 105 C-71.01320312 105.80695313 -72.02640625 106.61390625 -73.0703125 107.4453125 C-81.08047984 113.75620309 -89.40265002 119.51906281 -98 125 C-98.89203125 125.57363281 -99.7840625 126.14726562 -100.703125 126.73828125 C-105.18402634 129.44358733 -108.643382 131.13313073 -114 130 C-117 127.4375 -117 127.4375 -119 124 C-119.1875 120.4375 -119.1875 120.4375 -118 117 C-113.89854799 113.18626178 -109.48261394 110.35329588 -104.6875 107.5 C-90.97027304 99.11030287 -78.56966191 89.14052015 -67 78 C-66.21367187 77.27683594 -65.42734375 76.55367188 -64.6171875 75.80859375 C-53.06415074 64.87950148 -45.40200051 50.8820968 -37.26171875 37.38671875 C-14.16920777 -0.85015247 -14.16920777 -0.85015247 0 0 Z " fill="#E44B3B" transform="translate(294,295)"/>
<path d="M0 0 C3.9375 0.5625 3.9375 0.5625 6.15625 2.11328125 C8.58018518 5.44619212 8.49869444 8.34802628 8.375 12.3125 C8.36106201 13.06257324 8.34712402 13.81264648 8.33276367 14.58544922 C7.35368921 45.00373006 -6.90843063 71.37833949 -28.0625 92.5625 C-35.85219592 99.67322084 -50.15790077 111.97767288 -61.1875 112 C-65.0625 111.5625 -65.0625 111.5625 -67.5 110 C-69.59817796 106.72684238 -70.0625 104.44832276 -70.0625 100.5625 C-67.22127851 96.02225661 -63.63450229 94.00696287 -58.9375 91.75 C-52.2927177 88.36950407 -46.61162292 84.58935253 -41.0625 79.5625 C-40.24394531 78.83675781 -39.42539062 78.11101562 -38.58203125 77.36328125 C-27.56656612 67.03094574 -20.31832113 54.61876582 -15.0625 40.5625 C-14.74667969 39.74136719 -14.43085938 38.92023438 -14.10546875 38.07421875 C-10.67646114 28.56421242 -9.83546373 18.9855193 -9.69921875 8.9453125 C-8.7302207 3.7971388 -5.56747782 -0.18816525 0 0 Z " fill="#E44B3B" transform="translate(330.0625,298.4375)"/>
<path d="M0 0 C2.4375 1.625 2.4375 1.625 4 4 C4.58616994 8.02991837 4.5667516 10.12709208 2.33081055 13.57087708 C-0.31249748 16.32567846 -2.19943123 17.20395682 -5.79296875 18.4284668 C-6.96359863 18.83626877 -8.13422852 19.24407074 -9.34033203 19.66423035 C-10.62263385 20.09282169 -11.90502586 20.52114331 -13.1875 20.94921875 C-14.52768214 21.40990636 -15.86735426 21.87208004 -17.20654297 22.33564758 C-20.74862709 23.5575551 -24.29691923 24.76031287 -27.84698486 25.95880127 C-31.34816522 27.14379325 -34.8439416 28.34446548 -38.33984375 29.54492188 C-42.47496816 30.96435116 -46.61044997 32.38261489 -50.74902344 33.79196167 C-61.3903853 37.4196547 -71.98178595 41.17722897 -82.54736328 45.01994324 C-84.17714111 45.60912285 -84.17714111 45.60912285 -85.83984375 46.21020508 C-86.79238037 46.5571492 -87.74491699 46.90409332 -88.72631836 47.2615509 C-91 48 -91 48 -93 48 C-93.4724049 40.74333579 -93.45814998 35.90403646 -89 30 C-84.3242262 25.26673717 -78.35502959 23.82657177 -72.1875 21.8125 C-69.604324 20.95115723 -67.02219847 20.08716652 -64.44140625 19.21875 C-63.72978333 18.9800972 -63.0181604 18.7414444 -62.28497314 18.49555969 C-55.70450557 16.27285907 -49.17865336 13.90753017 -42.65234375 11.53125 C-39.39489663 10.35184296 -36.13710662 9.17338646 -32.87930298 7.9949646 C-30.71465743 7.20843159 -28.55185608 6.41680394 -26.39096069 5.62002563 C-23.32027584 4.48900338 -20.24311376 3.37753765 -17.1640625 2.26953125 C-16.24217636 1.92422363 -15.32029022 1.57891602 -14.37046814 1.22314453 C-9.18201234 -0.621233 -5.4978713 -1.4685607 0 0 Z " fill="#812F33" transform="translate(145,443)"/>
<path d="M0 0 C6.06943505 4.84631696 7.08066195 12.66502386 8 20 C8.94973824 33.64801229 9.26272743 47.87273711 5 61 C4.80664062 61.62342285 4.61328125 62.2468457 4.4140625 62.88916016 C1.94928073 70.70000793 -1.16208473 77.82956349 -5.5625 84.75 C-5.92617676 85.32234375 -6.28985352 85.8946875 -6.66455078 86.484375 C-9.02167792 90.00051983 -11.46189813 92.66575708 -15 95 C-19.2850666 95.07517661 -21.23003157 94.69099731 -24.4375 91.8125 C-26.32961775 88.40668804 -26.42493282 86.86134608 -26 83 C-24.68695331 80.50263669 -23.36613208 78.27024142 -21.8125 75.9375 C-10.87800587 58.58581794 -7.10816055 38.44838163 -10.67578125 18.15625 C-11.18254904 16.21564159 -11.7299918 14.28446994 -12.34375 12.375 C-13.06785172 9.75444141 -13.27767812 7.70512235 -13 5 C-8.65625409 -0.02960052 -6.53324919 -1.69864479 0 0 Z " fill="#E3BF5D" transform="translate(408,287)"/>
<path d="M0 0 C4.45810752 -0.11734237 8.91581128 -0.18763372 13.375 -0.25 C14.62667969 -0.28351563 15.87835938 -0.31703125 17.16796875 -0.3515625 C29.01909626 -0.47565808 37.09577287 2.06389014 45.734375 10.30859375 C51.76933098 17.47770525 54.19084472 25.99465167 56 35 C51.18031697 35.0996515 46.36124723 35.17183311 41.54077148 35.21972656 C39.90459736 35.23971332 38.26849349 35.26691243 36.63256836 35.30175781 C24.97799508 35.54359821 15.52767289 35.2116018 6.57421875 26.80078125 C-0.54838527 18.65308782 -0.62000855 10.33347587 0 0 Z " fill="#F09A1F" transform="translate(382,191)"/>
<path d="M0 0 C2.5 1.5 2.5 1.5 4 4 C4.89789902 10.62200526 3.02863876 15.15905381 0 21 C0.86625 21.226875 1.7325 21.45375 2.625 21.6875 C6.66812797 23.25982754 9.06652673 24.78714833 12 28 C12.80296365 31.05977814 12.51686053 32.74377865 12 36 C9.96393202 39.17626604 8.43490176 39.8521334 4.875 41.0625 C-0.57209531 40.97464362 -4.3614092 38.69728922 -9 36 C-9.2475 36.86625 -9.495 37.7325 -9.75 38.625 C-11.25173905 42.67969543 -12.9784662 46.9892331 -17 49 C-20.3125 49.4375 -20.3125 49.4375 -24 49 C-27.17077034 46.16654565 -28.75769675 44.26536144 -29.5625 40.0625 C-28.82312352 36.03700582 -27.14289399 33.48220274 -25 30 C-25 29.34 -25 28.68 -25 28 C-25.61488281 27.68546875 -26.22976563 27.3709375 -26.86328125 27.046875 C-27.67152344 26.61890625 -28.47976563 26.1909375 -29.3125 25.75 C-30.11300781 25.33234375 -30.91351563 24.9146875 -31.73828125 24.484375 C-34.18669297 22.87747266 -35.51930702 21.51910104 -37 19 C-36.93108944 15.14100853 -36.52415508 12.78623262 -34.375 9.5625 C-30.94775201 7.30773159 -29.0701345 7.47482136 -25 8 C-21.58298475 9.15729568 -18.28802426 10.51807357 -15 12 C-14.81244141 10.86304688 -14.81244141 10.86304688 -14.62109375 9.703125 C-13.81176651 6.18076995 -12.15414646 3.87219528 -10 1 C-6.79158965 -0.60420518 -3.4806013 -0.47462745 0 0 Z " fill="#FCFCFC" transform="translate(326,35)"/>
<path d="M0 0 C5.64670309 3.09283444 9.01630976 5.85422443 11.34765625 11.89453125 C12.46726745 17.82847063 10.33607652 21.64522955 7.1953125 26.5234375 C3.53835241 31.21640742 -1.75155863 35.5668546 -7.65234375 36.89453125 C-14.16889474 37.00135995 -17.19850702 35.19161134 -21.98828125 30.87890625 C-26.18407178 25.87547529 -26.20366284 20.4174109 -26.08984375 14.12890625 C-25.4104181 9.10600946 -23.43842928 6.18011081 -19.65234375 2.89453125 C-13.60762243 -1.55347123 -7.02279899 -2.92702815 0 0 Z " fill="#FCFCFC" transform="translate(352.65234375,171.10546875)"/>
<path d="M0 0 C5.75362577 3.01662853 10.12778349 7.43391883 12.65234375 13.453125 C13.81009823 17.17711235 13.89455985 20.51516745 13.65234375 24.390625 C13.07484375 23.648125 12.49734375 22.905625 11.90234375 22.140625 C7.8626303 17.20319745 4.17001551 13.08629616 -2.453125 12.06640625 C-9.0419796 11.73753055 -13.94214161 13.49759071 -18.95703125 17.7578125 C-23.06577347 22.39745961 -22.95950981 27.3834366 -22.69921875 33.36328125 C-22.07928264 38.70161998 -20.32448496 41.69799716 -16.34765625 45.140625 C-14.38693076 46.61116912 -12.38693403 48.03110648 -10.34765625 49.390625 C-16.69071751 49.94219554 -21.80939876 48.56423323 -27.34765625 45.390625 C-32.95356192 40.56011563 -36.94210713 34.84595331 -37.625 27.34375 C-37.85638216 19.31016156 -36.91747535 13.70792109 -32.78515625 6.765625 C-23.09027306 -2.68067144 -12.46460403 -4.96486332 0 0 Z " fill="#49505E" transform="translate(350.34765625,158.609375)"/>
<path d="M0 0 C0.73403931 2.07418823 0.73403931 2.07418823 1.42041016 4.83935547 C1.68052887 5.87067596 1.94064758 6.90199646 2.20864868 7.96456909 C2.48268524 9.08743317 2.7567218 10.21029724 3.0390625 11.3671875 C3.32478119 12.51285187 3.61049988 13.65851624 3.90487671 14.83889771 C4.50881782 17.26745216 5.10876921 19.69700168 5.70507812 22.12744141 C6.61989035 25.85418443 7.54713711 29.57765885 8.4765625 33.30078125 C9.06063246 35.65606745 9.64398957 38.01153057 10.2265625 40.3671875 C10.50464752 41.48600311 10.78273254 42.60481873 11.06924438 43.75753784 C11.32305878 44.79516266 11.57687317 45.83278748 11.83837891 46.90185547 C12.0632901 47.81595184 12.28820129 48.73004822 12.51992798 49.67184448 C13 52 13 52 13 55 C11.67935547 55.09087891 11.67935547 55.09087891 10.33203125 55.18359375 C9.17058594 55.26738281 8.00914062 55.35117187 6.8125 55.4375 C5.66394531 55.51871094 4.51539063 55.59992188 3.33203125 55.68359375 C0.48401829 55.95403812 -2.21210482 56.37521747 -5 57 C-7.08567405 50.96543405 -8.90969607 44.909189 -10.515625 38.73046875 C-10.73571228 37.88704422 -10.95579956 37.04361969 -11.18255615 36.17463684 C-11.64138897 34.40961125 -12.09842239 32.64411698 -12.55371094 30.87817383 C-13.25328955 28.17478817 -13.96639561 25.47518575 -14.6796875 22.77539062 C-15.12583649 21.0522997 -15.57117804 19.32899947 -16.015625 17.60546875 C-16.33735687 16.39917061 -16.33735687 16.39917061 -16.66558838 15.16850281 C-18.37929777 8.41204553 -18.37929777 8.41204553 -17 5 C-14.49200194 3.68233868 -12.1985004 2.65865804 -9.5625 1.6875 C-8.86833984 1.41099609 -8.17417969 1.13449219 -7.45898438 0.84960938 C-2.28086515 -1.14043257 -2.28086515 -1.14043257 0 0 Z " fill="#EFC319" transform="translate(376,431)"/>
<path d="M0 0 C1.73112226 2.59668339 2.62870192 4.47930902 3.61987305 7.3762207 C3.92326096 8.2575618 4.22664886 9.13890289 4.53923035 10.04695129 C4.86015152 10.99696518 5.18107269 11.94697906 5.51171875 12.92578125 C5.8442012 13.90612839 6.17668365 14.88647552 6.51924133 15.89653015 C7.22020747 17.97109585 7.91856154 20.04654569 8.61450195 22.12280273 C9.68130365 25.29408014 10.76712036 28.45843731 11.85351562 31.62304688 C12.5324384 33.64022541 13.21021095 35.65779152 13.88671875 37.67578125 C14.21371262 38.61972244 14.54070648 39.56366364 14.87760925 40.53620911 C16.47203538 45.36832571 17.5934209 48.9653792 16 54 C14.4375 56.375 14.4375 56.375 12 58 C9.224459 58.55852776 6.74476806 58.72907902 4 58 C-0.55447027 54.74059857 -1.65674917 50.05459895 -3.25 44.9375 C-3.518125 44.12216797 -3.78625 43.30683594 -4.0625 42.46679688 C-6 36.45165019 -6 36.45165019 -6 33 C-7.485 33.495 -7.485 33.495 -9 34 C-9.50299335 20.26548703 -9.71261972 10.52200469 0 0 Z " fill="#393F4A" transform="translate(246,37)"/>
<path d="M0 0 C6.27 0 12.54 0 19 0 C16.75227259 10.37412653 14.37827906 20.699721 11.8125 31 C11.55065918 32.05638672 11.28881836 33.11277344 11.01904297 34.20117188 C10.7717041 35.18666016 10.52436523 36.17214844 10.26953125 37.1875 C10.04885986 38.06792969 9.82818848 38.94835937 9.60083008 39.85546875 C9 42 9 42 8 44 C-1.405 44.495 -1.405 44.495 -11 45 C-9.56711135 36.42517422 -7.61621415 28.03006669 -5.48608398 19.6081543 C-4.93083066 17.41111054 -4.3820524 15.21251789 -3.83398438 13.01367188 C-1.13982101 2.27964203 -1.13982101 2.27964203 0 0 Z " fill="#EFC31A" transform="translate(316,442)"/>
<path d="M0 0 C7.99055922 0.20346331 13.24467822 2.34077898 18.984375 7.93359375 C23.68665209 13.07306603 25.74549323 17.71506917 27.5 24.4375 C28.28897056 27.43318516 29.10491925 30.28162535 30.1875 33.1875 C31.34158656 37.18241501 31.53040141 39.82308892 31 44 C28.4375 47.0625 28.4375 47.0625 25 49 C20.86199175 49.14268994 18.89890936 48.77406083 15.75 46.0625 C13.82695572 42.69717251 12.78924772 39.52676306 11.80859375 35.79296875 C10.97532831 32.91478137 9.948242 30.14235556 8.88061523 27.34399414 C7.11083366 22.6332448 5.47107199 17.87577401 3.8125 13.125 C3.44447266 12.08085937 3.07644531 11.03671875 2.69726562 9.9609375 C2.34986328 8.96578125 2.00246094 7.970625 1.64453125 6.9453125 C1.17043823 5.59203857 1.17043823 5.59203857 0.68676758 4.21142578 C0 2 0 2 0 0 Z " fill="#393F4A" transform="translate(356,1)"/>
</svg>
